<svg xmlns="http://www.w3.org/2000/svg" width="532.8778076171875" height="259.0284118652344" viewBox="-600.5924682617188 -149.49264526367188 532.8778076171875 259.0284118652344"><title>Neo4j Graph Visualization</title><desc>Created using Neo4j (http://www.neo4j.com/)</desc><g class="layer relationships"><g class="relationship" transform="translate(-227.30617705344474 -20.21944078440616) rotate(359.98378900972943)"><path class="outline" fill="#A5ABB6" stroke="none" d="M 25 0.5 L 44.57311701102971 0.5 L 44.57311701102971 -0.5 L 25 -0.5 Z M 79.01842951102971 0.5 L 98.59154652205942 0.5 L 98.59154652205942 3.5 L 105.59154652205942 0 L 98.59154652205942 -3.5 L 98.59154652205942 -0.5 L 79.01842951102971 -0.5 Z"/><text text-anchor="middle" pointer-events="none" font-size="8px" fill="#000000" x="61.79577326102971" y="3" font-family="sans-serif">ORIGIN</text></g><g class="relationship" transform="translate(-227.30617705344474 -20.21944078440616) rotate(539.7827411323507)"><path class="outline" fill="#A5ABB6" stroke="none" d="M 25 0.5 L 35.35517690519171 0.5 L 35.35517690519171 -0.5 L 25 -0.5 Z M 94.54267690519171 0.5 L 104.89785381038342 0.5 L 104.89785381038342 3.5 L 111.89785381038342 0 L 104.89785381038342 -3.5 L 104.89785381038342 -0.5 L 94.54267690519171 -0.5 Z"/><text text-anchor="middle" pointer-events="none" font-size="8px" fill="#000000" x="64.94892690519171" y="3" transform="rotate(180 64.94892690519171 0)" font-family="sans-serif">DESTINATION</text></g><g class="relationship" transform="translate(-476.5811306340208 -17.473574790751286) rotate(358.8648352717345)"><path class="outline" fill="#A5ABB6" stroke="none" d="M 25 0.5 L 35.477415464199616 0.5 L 35.477415464199616 -0.5 L 25 -0.5 Z M 69.92272796419962 0.5 L 80.40014342839923 0.5 L 80.40014342839923 3.5 L 87.40014342839923 0 L 80.40014342839923 -3.5 L 80.40014342839923 -0.5 L 69.92272796419962 -0.5 Z"/><text text-anchor="middle" pointer-events="none" font-size="8px" fill="#000000" x="52.700071714199616" y="3" font-family="sans-serif">ORIGIN</text></g><g class="relationship" transform="translate(-476.5811306340208 -17.473574790751286) rotate(537.632082627649)"><path class="outline" fill="#A5ABB6" stroke="none" d="M 25 0.5 L 25.266972104085625 0.5 L 25.266972104085625 -0.5 L 25 -0.5 Z M 62.825565854085625 0.5 L 63.09253795817125 0.5 L 63.09253795817125 3.5 L 70.09253795817125 0 L 63.09253795817125 -3.5 L 63.09253795817125 -0.5 L 62.825565854085625 -0.5 Z"/><text text-anchor="middle" pointer-events="none" font-size="8px" fill="#000000" x="44.046268979085625" y="3" transform="rotate(180 44.046268979085625 0)" font-family="sans-serif">DESTI…</text></g><g class="relationship" transform="translate(-96.71463575846226 -20.256389723400204) rotate(539.8808951248047)"><path class="outline" fill="#A5ABB6" stroke="none" d="M 5.987513214418485,-24.277555179777966 L 6.953439040707552,-24.018736134675446 A 130.49162458595313 130.49162458595313 0 0 1 89.70795009410398,-113.34651201456933 L 89.37619915310717,-114.28987902329271 A 131.49162458595313 131.49162458595313 0 0 0 5.987513214418485,-24.277555179777966 Z M 170.34117554642182,-116.32271104697355 L 170.05718402740828,-115.36388425493634 A 130.49162458595313 130.49162458595313 0 0 1 257.190202682175,-30.30156766619463 L 254.33504166168348,-29.380668351901534 L 259.81482791894086,-23.79300850409647 L 260.99708404283047,-31.529433418585427 L 258.1419230223389,-30.608534104292332 A 131.49162458595313 131.49162458595313 0 0 0 170.34117554642182,-116.32271104697355"/><text text-anchor="middle" pointer-events="none" font-size="8px" fill="#000000" x="129.71082699932631" y="-118.19537472458995" transform="rotate(180 129.71082699932631 -121.19537472458995)" font-family="sans-serif">CHEAPEST_FLIGHT</text></g><g class="relationship" transform="translate(-96.71463575846226 -20.256389723400204) rotate(539.8808951248047)"><path class="outline" fill="#A5ABB6" stroke="none" d="M 17.324116139070416,-18.03122292025696 L 18.031222920256962,-17.324116139070412 A 162.58852196201784 162.58852196201784 0 0 1 89.69209325423704,-59.07159542981097 L 89.42573634560742,-60.03546990152668 A 163.58852196201784 163.58852196201784 0 0 0 17.324116139070416,-18.03122292025696 Z M 170.81522665757163,-61.51417821235992 L 170.5840578881414,-60.54126454710482 A 162.58852196201784 162.58852196201784 0 0 1 243.71409571172234,-21.42438926193031 L 241.67123146091953,-19.227412782130894 L 249.18085153972146,-17.023868756690295 L 246.43791471279278,-24.353691234996194 L 244.39505046198997,-22.15671475519678 A 163.58852196201784 163.58852196201784 0 0 0 170.81522665757163,-61.51417821235992"/><text text-anchor="middle" pointer-events="none" font-size="8px" fill="#000000" x="130.03611779200784" y="-62.41828164311923" transform="rotate(180 130.03611779200784 -65.41828164311923)" font-family="sans-serif">CHEAPEST_FLIGHT</text></g><g class="relationship" transform="translate(-96.71463575846226 -20.256389723400204) rotate(539.8808951248047)"><path class="outline" fill="#A5ABB6" stroke="none" d="M 24.018736134675446,-6.953439040707552 L 24.277555179777966,-5.987513214418485 A 420.066128131542 420.066128131542 0 0 1 89.34360564680959,-18.026351075402772 L 89.23968138162292,-19.020936288999565 A 421.066128131542 421.066128131542 0 0 0 24.018736134675446,-6.953439040707552 Z M 171.2209710028003,-19.56251506499501 L 171.13019594608957,-18.56664364303373 A 420.066128131542 420.066128131542 0 0 1 236.34962081008092,-7.388488122932753 L 235.6115159412564,-4.480705255761005 L 243.25746497828575,-6.150873906870851 L 237.33376063518028,-11.265531945828418 L 236.59565576635578,-8.357749078656669 A 421.066128131542 421.066128131542 0 0 0 171.2209710028003,-19.56251506499501"/><text text-anchor="middle" pointer-events="none" font-size="8px" fill="#000000" x="130.220416889293" y="-17.791742790887497" transform="rotate(180 130.220416889293 -20.791742790887497)" font-family="sans-serif">CHEAPEST_FLIGHT</text></g><g class="relationship" transform="translate(-364.203046680776 -19.70034144269148) rotate(538.2998747722818)"><path class="outline" fill="#A5ABB6" stroke="none" d="M 5.987513214418485,24.277555179777966 L 6.953439040707552,24.018736134675446 A 99.20575952592172 99.20575952592172 0 0 0 60.20183084543431,87.94697558754757 L 59.772651998949506,88.85019511663779 A 100.20575952592172 100.20575952592172 0 0 1 5.987513214418485,24.277555179777966 Z M 139.85349908919895,91.43731663339648 L 139.4835138210748,90.50827901232233 A 99.20575952592172 99.20575952592172 0 0 0 196.74714283505358,30.15028184970016 L 193.90552459633392,29.188405669843434 L 199.46512362783923,23.680151989330405 L 200.53596715334646,31.432783422842462 L 197.6943489146268,30.470907242985735 A 100.20575952592172 100.20575952592172 0 0 1 139.85349908919895,91.43731663339648"/><text text-anchor="middle" pointer-events="none" font-size="8px" fill="#000000" x="99.55939270950391" y="100.99616487592817" transform="rotate(180 99.55939270950391 97.99616487592817)" font-family="sans-serif">CHEAPEST_FLIGHT</text></g><g class="relationship" transform="translate(-364.203046680776 -19.70034144269148) rotate(538.2998747722818)"><path class="outline" fill="#A5ABB6" stroke="none" d="M 10.396609043987748,22.74116356711926 L 11.29757791189017,22.307279828001697 A 101.5365454130632 101.5365454130632 0 0 0 60.281214147839314,70.46730660083821 L 59.86266898301521,71.37550258464478 A 102.5365454130632 102.5365454130632 0 0 1 10.396609043987748,22.74116356711926 Z M 140.0434068804445,73.77758969145586 L 139.679979748714,72.84596706403522 A 101.5365454130632 101.5365454130632 0 0 0 191.4587763660355,27.704622173589954 L 188.8386380191421,26.243501013953 L 195.30474879633726,21.83448622411156 L 194.95229416189332,29.652783719772557 L 192.33215581499994,28.191662560135605 A 102.5365454130632 102.5365454130632 0 0 1 140.0434068804445,73.77758969145586"/><text text-anchor="middle" pointer-events="none" font-size="8px" fill="#000000" x="99.72336286863364" y="83.24301084845825" transform="rotate(180 99.72336286863364 80.24301084845825)" font-family="sans-serif">CHEAPEST_FLIGHT</text></g><g class="relationship" transform="translate(-364.203046680776 -19.70034144269148) rotate(538.2998747722818)"><path class="outline" fill="#A5ABB6" stroke="none" d="M 14.44320574945421,20.411854586953456 L 15.247803529220876,19.818034401379958 A 108.78856859334441 108.78856859334441 0 0 0 60.23116163873879,55.340347358691 L 59.84005728655519,56.26069369877339 A 109.78856859334441 109.78856859334441 0 0 1 14.44320574945421,20.411854586953456 Z M 140.28263718946607,58.40146482315355 L 139.94103702665714,57.46161944822803 A 108.78856859334441 108.78856859334441 0 0 0 186.75005478914628,24.382123068185347 L 184.43442884816307,22.47480125437268 L 191.5864100115397,19.296882841526653 L 189.83755604379053,26.925218819935573 L 187.52193010280732,25.017897006122904 A 109.78856859334441 109.78856859334441 0 0 1 140.28263718946607,58.40146482315355"/><text text-anchor="middle" pointer-events="none" font-size="8px" fill="#000000" x="99.87144116611631" y="67.4670753459396" transform="rotate(180 99.87144116611631 64.4670753459396)" font-family="sans-serif">CHEAPEST_FLIGHT</text></g><g class="relationship" transform="translate(-364.203046680776 -19.70034144269148) rotate(359.88089512480474)"><path class="outline" fill="#A5ABB6" stroke="none" d="M 24.018736134675446,-6.953439040707552 L 24.277555179777966,-5.987513214418485 A 420.066128131542 420.066128131542 0 0 1 89.34360564680959,-18.026351075402772 L 89.23968138162292,-19.020936288999565 A 421.066128131542 421.066128131542 0 0 0 24.018736134675446,-6.953439040707552 Z M 171.2209710028003,-19.56251506499501 L 171.13019594608957,-18.56664364303373 A 420.066128131542 420.066128131542 0 0 1 236.34962081008092,-7.388488122932753 L 235.6115159412564,-4.480705255761005 L 243.25746497828575,-6.150873906870851 L 237.33376063518028,-11.265531945828418 L 236.59565576635578,-8.357749078656669 A 421.066128131542 421.066128131542 0 0 0 171.2209710028003,-19.56251506499501"/><text text-anchor="middle" pointer-events="none" font-size="8px" fill="#000000" x="130.220416889293" y="-17.791742790887497" font-family="sans-serif">CHEAPEST_FLIGHT</text></g><g class="relationship" transform="translate(-364.203046680776 -19.70034144269148) rotate(538.2998747722818)"><path class="outline" fill="#A5ABB6" stroke="none" d="M 17.9862104268602,17.370844380187897 L 18.666383164631117,16.637792508358068 A 123.66338203210621 123.66338203210621 0 0 0 60.06572718624613,42.038786546595446 L 59.72032892529541,42.977242747668356 A 124.66338203210621 124.66338203210621 0 0 1 17.9862104268602,17.370844380187897 Z M 140.55705209799683,44.78749018022589 L 140.254010361131,43.83451289523042 A 123.66338203210621 123.66338203210621 0 0 0 182.7489359579992,20.312236600891325 L 180.8089091604024,18.02394116004321 L 188.41162978624428,16.166889979973448 L 185.33563835479495,23.363297188688808 L 183.39561155719815,21.075001747840695 A 124.66338203210621 124.66338203210621 0 0 1 140.55705209799683,44.78749018022589"/><text text-anchor="middle" pointer-events="none" font-size="8px" fill="#000000" x="99.99904201854356" y="53.11837949475549" transform="rotate(180 99.99904201854356 50.11837949475549)" font-family="sans-serif">CHEAPEST_FLIGHT</text></g><g class="relationship" transform="translate(-364.203046680776 -19.70034144269148) rotate(538.2998747722818)"><path class="outline" fill="#A5ABB6" stroke="none" d="M 20.90208894244944,13.724164012497553 L 21.434121018964774,12.87743981326927 A 152.894396513159 152.894396513159 0 0 0 59.82295903151547,30.154172637353867 L 59.54200769365393,31.11389465218619 A 153.894396513159 153.894396513159 0 0 1 20.90208894244944,13.724164012497553 Z M 140.83598136850136,32.532572750363556 L 140.58868752319344,31.563632218611076 A 152.894396513159 152.894396513159 0 0 0 179.55696657625253,15.63687458651381 L 178.05047338793824,13.042558053481912 L 185.861454018046,12.554109902619118 L 181.5656241606716,19.09596329722301 L 180.0591309723573,16.50164676419111 A 153.894396513159 153.894396513159 0 0 1 140.83598136850136,32.532572750363556"/><text text-anchor="middle" pointer-events="none" font-size="8px" fill="#000000" x="100.10233418856313" y="39.789098482072404" transform="rotate(180 100.10233418856313 36.789098482072404)" font-family="sans-serif">CHEAPEST_FLIGHT</text></g><g class="relationship" transform="translate(-364.203046680776 -19.70034144269148) rotate(538.2998747722818)"><path class="outline" fill="#A5ABB6" stroke="none" d="M 23.08917320392191,9.598962483481976 L 23.454514228288303,8.668088734837774 A 217.1240697447059 217.1240697447059 0 0 0 59.56119969856036,19.332447924657345 L 59.36215385055431,20.31243810337935 A 218.1240697447059 218.1240697447059 0 0 1 23.08917320392191,9.598962483481976 Z M 141.07476529361566,21.288951356062512 L 140.89919585254015,20.30448430665942 A 217.1240697447059 217.1240697447059 0 0 0 177.25042373910068,10.506039342381829 L 176.221451047912,7.688023160599337 L 183.99729027845794,8.574772426572055 L 178.62238732735221,14.263394251425154 L 177.59341463616354,11.445378069642661 A 218.1240697447059 218.1240697447059 0 0 1 141.07476529361566,21.288951356062512"/><text text-anchor="middle" pointer-events="none" font-size="8px" fill="#000000" x="100.17829571540031" y="27.161523275889607" transform="rotate(180 100.17829571540031 24.161523275889607)" font-family="sans-serif">CHEAPEST_FLIGHT</text></g><g class="relationship" transform="translate(-364.203046680776 -19.70034144269148) rotate(538.2998747722818)"><path class="outline" fill="#A5ABB6" stroke="none" d="M 24.471206027250748,5.139073415689509 L 24.657117634413662,4.15650694245622 A 420.20897910127843 420.20897910127843 0 0 0 59.34639891741806,9.231633994352478 L 59.24303976155496,10.226278093967665 A 421.20897910127843 421.20897910127843 0 0 1 24.471206027250748,5.139073415689509 Z M 141.2246626299245,10.723992136015056 L 141.13338770404678,9.72816640431995 A 420.20897910127843 420.20897910127843 0 0 0 175.88173232407965,5.074598236588021 L 175.35982852137883,2.1203442832647053 L 182.8619755156175,4.349198355840035 L 176.57760406101406,9.013603507685776 L 176.05570025831324,6.05934955436246 A 421.20897910127843 421.20897910127843 0 0 1 141.2246626299245,10.723992136015056"/><text text-anchor="middle" pointer-events="none" font-size="8px" fill="#000000" x="100.22474861612474" y="14.97447848504305" transform="rotate(180 100.22474861612474 11.97447848504305)" font-family="sans-serif">CHEAPEST_FLIGHT</text></g><g class="relationship" transform="translate(-364.203046680776 -19.70034144269148) rotate(538.2998747722818)"><path class="outline" fill="#A5ABB6" stroke="none" d="M 25 0.5 L 59.23256672998929 0.5 L 59.23256672998929 -0.5 L 25 -0.5 Z M 141.2481917299893 0.5 L 175.48075845997857 0.5 L 175.48075845997857 3.5 L 182.48075845997857 0 L 175.48075845997857 -3.5 L 175.48075845997857 -0.5 L 141.2481917299893 -0.5 Z"/><text text-anchor="middle" pointer-events="none" font-size="8px" fill="#000000" x="100.24037922998929" y="3" transform="rotate(180 100.24037922998929 0)" font-family="sans-serif">CHEAPEST_FLIGHT</text></g><g class="relationship" transform="translate(-364.203046680776 -19.70034144269148) rotate(538.2998747722818)"><path class="outline" fill="#A5ABB6" stroke="none" d="M 24.471206027250748,-5.139073415689509 L 24.657117634413662,-4.15650694245622 A 420.20897910127843 420.20897910127843 0 0 1 59.34639891741811,-9.231633994352478 L 59.24303976155501,-10.226278093967665 A 421.20897910127843 421.20897910127843 0 0 0 24.471206027250748,-5.139073415689509 Z M 141.22466262992455,-10.723992136015056 L 141.1333877040468,-9.72816640431995 A 420.20897910127843 420.20897910127843 0 0 1 175.88173232407965,-5.074598236588021 L 175.35982852137883,-2.1203442832647053 L 182.8619755156175,-4.349198355840035 L 176.57760406101406,-9.013603507685776 L 176.05570025831324,-6.05934955436246 A 421.20897910127843 421.20897910127843 0 0 0 141.22466262992455,-10.723992136015056"/><text text-anchor="middle" pointer-events="none" font-size="8px" fill="#000000" x="100.22474861612478" y="-8.97447848504305" transform="rotate(180 100.22474861612478 -11.97447848504305)" font-family="sans-serif">CHEAPEST_FLIGHT</text></g><g class="relationship" transform="translate(-364.203046680776 -19.70034144269148) rotate(538.2998747722818)"><path class="outline" fill="#A5ABB6" stroke="none" d="M 23.08917320392191,-9.598962483481976 L 23.454514228288303,-8.668088734837774 A 217.1240697447059 217.1240697447059 0 0 1 59.56119969856026,-19.332447924657345 L 59.362153850554215,-20.31243810337932 A 218.1240697447059 218.1240697447059 0 0 0 23.08917320392191,-9.598962483481976 Z M 141.0747652936156,-21.28895135606254 L 140.8991958525401,-20.304484306659447 A 217.1240697447059 217.1240697447059 0 0 1 177.25042373910068,-10.506039342381829 L 176.221451047912,-7.688023160599337 L 183.99729027845794,-8.574772426572055 L 178.62238732735221,-14.263394251425154 L 177.59341463616354,-11.445378069642661 A 218.1240697447059 218.1240697447059 0 0 0 141.0747652936156,-21.28895135606254"/><text text-anchor="middle" pointer-events="none" font-size="8px" fill="#000000" x="100.17829571540022" y="-21.161523275889607" transform="rotate(180 100.17829571540022 -24.161523275889607)" font-family="sans-serif">CHEAPEST_FLIGHT</text></g><g class="relationship" transform="translate(-364.203046680776 -19.70034144269148) rotate(359.88089512480474)"><path class="outline" fill="#A5ABB6" stroke="none" d="M 17.324116139070416,-18.03122292025696 L 18.031222920256962,-17.324116139070412 A 162.58852196201784 162.58852196201784 0 0 1 89.69209325423704,-59.07159542981097 L 89.42573634560742,-60.03546990152668 A 163.58852196201784 163.58852196201784 0 0 0 17.324116139070416,-18.03122292025696 Z M 170.81522665757163,-61.51417821235992 L 170.5840578881414,-60.54126454710482 A 162.58852196201784 162.58852196201784 0 0 1 243.71409571172234,-21.42438926193031 L 241.67123146091953,-19.227412782130894 L 249.18085153972146,-17.023868756690295 L 246.43791471279278,-24.353691234996194 L 244.39505046198997,-22.15671475519678 A 163.58852196201784 163.58852196201784 0 0 0 170.81522665757163,-61.51417821235992"/><text text-anchor="middle" pointer-events="none" font-size="8px" fill="#000000" x="130.03611779200784" y="-62.41828164311923" font-family="sans-serif">CHEAPEST_FLIGHT</text></g><g class="relationship" transform="translate(-364.203046680776 -19.70034144269148) rotate(538.2998747722818)"><path class="outline" fill="#A5ABB6" stroke="none" d="M 20.90208894244944,-13.724164012497553 L 21.434121018964774,-12.87743981326927 A 152.894396513159 152.894396513159 0 0 1 59.82295903151547,-30.154172637353867 L 59.54200769365393,-31.11389465218619 A 153.894396513159 153.894396513159 0 0 0 20.90208894244944,-13.724164012497553 Z M 140.83598136850134,-32.532572750363556 L 140.5886875231934,-31.563632218611076 A 152.894396513159 152.894396513159 0 0 1 179.55696657625253,-15.63687458651381 L 178.05047338793824,-13.042558053481912 L 185.861454018046,-12.554109902619118 L 181.5656241606716,-19.09596329722301 L 180.0591309723573,-16.50164676419111 A 153.894396513159 153.894396513159 0 0 0 140.83598136850134,-32.532572750363556"/><text text-anchor="middle" pointer-events="none" font-size="8px" fill="#000000" x="100.10233418856312" y="-33.789098482072404" transform="rotate(180 100.10233418856312 -36.789098482072404)" font-family="sans-serif">CHEAPEST_FLIGHT</text></g><g class="relationship" transform="translate(-364.203046680776 -19.70034144269148) rotate(538.2998747722818)"><path class="outline" fill="#A5ABB6" stroke="none" d="M 17.9862104268602,-17.370844380187897 L 18.666383164631117,-16.637792508358068 A 123.66338203210621 123.66338203210621 0 0 1 60.06572718624607,-42.03878654659543 L 59.72032892529535,-42.97724274766834 A 124.66338203210621 124.66338203210621 0 0 0 17.9862104268602,-17.370844380187897 Z M 140.5570520979968,-44.7874901802259 L 140.25401036113098,-43.83451289523043 A 123.66338203210621 123.66338203210621 0 0 1 182.7489359579992,-20.312236600891325 L 180.8089091604024,-18.02394116004321 L 188.41162978624428,-16.166889979973448 L 185.33563835479495,-23.363297188688808 L 183.39561155719815,-21.075001747840695 A 124.66338203210621 124.66338203210621 0 0 0 140.5570520979968,-44.7874901802259"/><text text-anchor="middle" pointer-events="none" font-size="8px" fill="#000000" x="99.99904201854352" y="-47.11837949475549" transform="rotate(180 99.99904201854352 -50.11837949475549)" font-family="sans-serif">CHEAPEST_FLIGHT</text></g><g class="relationship" transform="translate(-364.203046680776 -19.70034144269148) rotate(359.88089512480474)"><path class="outline" fill="#A5ABB6" stroke="none" d="M 5.987513214418485,-24.277555179777966 L 6.953439040707552,-24.018736134675446 A 130.49162458595313 130.49162458595313 0 0 1 89.70795009410398,-113.34651201456933 L 89.37619915310717,-114.28987902329271 A 131.49162458595313 131.49162458595313 0 0 0 5.987513214418485,-24.277555179777966 Z M 170.34117554642182,-116.32271104697355 L 170.05718402740828,-115.36388425493634 A 130.49162458595313 130.49162458595313 0 0 1 257.190202682175,-30.30156766619463 L 254.33504166168348,-29.380668351901534 L 259.81482791894086,-23.79300850409647 L 260.99708404283047,-31.529433418585427 L 258.1419230223389,-30.608534104292332 A 131.49162458595313 131.49162458595313 0 0 0 170.34117554642182,-116.32271104697355"/><text text-anchor="middle" pointer-events="none" font-size="8px" fill="#000000" x="129.71082699932631" y="-118.19537472458995" font-family="sans-serif">CHEAPEST_FLIGHT</text></g><g class="relationship" transform="translate(-364.203046680776 -19.70034144269148) rotate(538.2998747722818)"><path class="outline" fill="#A5ABB6" stroke="none" d="M 14.44320574945421,-20.411854586953456 L 15.247803529220876,-19.818034401379958 A 108.78856859334441 108.78856859334441 0 0 1 60.23116163873874,-55.340347358690984 L 59.840057286555144,-56.26069369877337 A 109.78856859334441 109.78856859334441 0 0 0 14.44320574945421,-20.411854586953456 Z M 140.28263718946604,-58.40146482315357 L 139.9410370266571,-57.46161944822803 A 108.78856859334441 108.78856859334441 0 0 1 186.75005478914628,-24.382123068185347 L 184.43442884816307,-22.47480125437268 L 191.5864100115397,-19.296882841526653 L 189.83755604379053,-26.925218819935573 L 187.52193010280732,-25.017897006122904 A 109.78856859334441 109.78856859334441 0 0 0 140.28263718946604,-58.40146482315357"/><text text-anchor="middle" pointer-events="none" font-size="8px" fill="#000000" x="99.87144116611627" y="-61.467075345939605" transform="rotate(180 99.87144116611627 -64.4670753459396)" font-family="sans-serif">CHEAPEST_FLIGHT</text></g><g class="relationship" transform="translate(-364.203046680776 -19.70034144269148) rotate(538.2998747722818)"><path class="outline" fill="#A5ABB6" stroke="none" d="M 10.396609043987748,-22.74116356711926 L 11.29757791189017,-22.307279828001697 A 101.5365454130632 101.5365454130632 0 0 1 60.2812141478393,-70.46730660083821 L 59.86266898301519,-71.37550258464478 A 102.5365454130632 102.5365454130632 0 0 0 10.396609043987748,-22.74116356711926 Z M 140.04340688044448,-73.77758969145589 L 139.67997974871395,-72.84596706403525 A 101.5365454130632 101.5365454130632 0 0 1 191.4587763660355,-27.704622173589954 L 188.8386380191421,-26.243501013953 L 195.30474879633726,-21.83448622411156 L 194.95229416189332,-29.652783719772557 L 192.33215581499994,-28.191662560135605 A 102.5365454130632 102.5365454130632 0 0 0 140.04340688044448,-73.77758969145589"/><text text-anchor="middle" pointer-events="none" font-size="8px" fill="#000000" x="99.72336286863361" y="-77.24301084845825" transform="rotate(180 99.72336286863361 -80.24301084845825)" font-family="sans-serif">CHEAPEST_FLIGHT</text></g><g class="relationship" transform="translate(-364.203046680776 -19.70034144269148) rotate(538.2998747722818)"><path class="outline" fill="#A5ABB6" stroke="none" d="M 5.987513214418485,-24.277555179777966 L 6.953439040707552,-24.018736134675446 A 99.20575952592172 99.20575952592172 0 0 1 60.20183084543429,-87.94697558754754 L 59.772651998949485,-88.85019511663779 A 100.20575952592172 100.20575952592172 0 0 0 5.987513214418485,-24.277555179777966 Z M 139.85349908919892,-91.43731663339648 L 139.4835138210748,-90.50827901232233 A 99.20575952592172 99.20575952592172 0 0 1 196.74714283505358,-30.15028184970016 L 193.90552459633392,-29.188405669843434 L 199.46512362783923,-23.680151989330405 L 200.53596715334646,-31.432783422842462 L 197.6943489146268,-30.470907242985735 A 100.20575952592172 100.20575952592172 0 0 0 139.85349908919892,-91.43731663339648"/><text text-anchor="middle" pointer-events="none" font-size="8px" fill="#000000" x="99.5593927095039" y="-94.99616487592817" transform="rotate(180 99.5593927095039 -97.99616487592817)" font-family="sans-serif">CHEAPEST_FLIGHT</text></g></g><g class="layer nodes"><g class="node" aria-label="graph-node21" transform="translate(-96.71463575846226,-20.256389723400204)"><circle class="outline" cx="0" cy="0" r="25" fill="#8DCC93" stroke="#5db665" stroke-width="2px"/><text class="caption" text-anchor="middle" pointer-events="none" x="0" y="5" font-size="10px" fill="#2A2C34" font-family="sans-serif"> MSN</text></g><g class="node" aria-label="graph-node68" transform="translate(-571.5924711310289,-13.544713341447725)"><circle class="outline" cx="0" cy="0" r="25" fill="#8DCC93" stroke="#5db665" stroke-width="2px"/><text class="caption" text-anchor="middle" pointer-events="none" x="0" y="5" font-size="10px" fill="#2A2C34" font-family="sans-serif"> GRR</text></g><g class="node" aria-label="graph-node271" transform="translate(-227.30617705344474,-20.21944078440616)"><circle class="outline" cx="0" cy="0" r="25" fill="#ECB5C9" stroke="#da7298" stroke-width="2px"/><text class="caption" text-anchor="middle" pointer-events="none" x="0" y="5" font-size="10px" fill="#2A2C34" font-family="sans-serif"> 11/30/20…</text></g><g class="node" aria-label="graph-node7" transform="translate(-364.203046680776,-19.70034144269148)"><circle class="outline" cx="0" cy="0" r="25" fill="#8DCC93" stroke="#5db665" stroke-width="2px"/><text class="caption" text-anchor="middle" pointer-events="none" x="0" y="5" font-size="10px" fill="#2A2C34" font-family="sans-serif"> ORD</text></g><g class="node" aria-label="graph-node851" transform="translate(-476.5811306340208,-17.473574790751286)"><circle class="outline" cx="0" cy="0" r="25" fill="#ECB5C9" stroke="#da7298" stroke-width="2px"/><text class="caption" text-anchor="middle" pointer-events="none" x="0" y="5" font-size="10px" fill="#2A2C34" font-family="sans-serif"> 11/17/20…</text></g></g></svg>