<svg xmlns="http://www.w3.org/2000/svg" width="498.2090148925781" height="154.51190185546875" viewBox="-445.0370178222656 -71.54034423828125 498.2090148925781 154.51190185546875"><title>Neo4j Graph Visualization</title><desc>Created using Neo4j (http://www.neo4j.com/)</desc><g class="layer relationships"><g class="relationship" transform="translate(24.171991468059122 53.97155877360953) rotate(222.0401577230934)"><path class="outline" fill="#A5ABB6" stroke="none" d="M 21.40063509461097,12.933012701892217 L 21.90063509461097,12.06698729810778 A 97.55287924115892 97.55287924115892 0 0 0 38.32274403429991,19.61502302317092 L 37.991084621142996,20.558422214215938 A 98.55287924115892 98.55287924115892 0 0 1 21.40063509461097,12.933012701892217 Z M 98.9964517631941,21.98012920888499 L 98.70909966078919,21.022304188725514 A 97.55287924115892 97.55287924115892 0 0 0 115.46499767845441,14.247469360078837 L 114.08765474470427,11.582337760542234 L 121.91319523299818,11.477857781251252 L 117.30145492345461,17.800978159460975 L 115.92411198970447,15.135846559924373 A 98.55287924115892 98.55287924115892 0 0 1 98.9964517631941,21.98012920888499"/><text text-anchor="middle" pointer-events="none" font-size="8px" fill="#000000" x="68.39260973954336" y="28.609979221529287" transform="rotate(180 68.39260973954336 25.609979221529287)" font-family="sans-serif">PublicTransport</text></g><g class="relationship" transform="translate(-82.86437430491624 -42.540344663489726) rotate(535.2443322288398)"><path class="outline" fill="#A5ABB6" stroke="none" d="M 25 0.5 L 67.27873827266153 0.5 L 67.27873827266153 -0.5 L 25 -0.5 Z M 86.61467577266153 0.5 L 128.89341404532306 0.5 L 128.89341404532306 3.5 L 135.89341404532306 0 L 128.89341404532306 -3.5 L 128.89341404532306 -0.5 L 86.61467577266153 -0.5 Z"/><text text-anchor="middle" pointer-events="none" font-size="8px" fill="#000000" x="76.94670702266153" y="3" transform="rotate(180 76.94670702266153 0)" font-family="sans-serif">trek</text></g><g class="relationship" transform="translate(-243.20388157981836 -29.201188393269277) rotate(539.9160456095908)"><path class="outline" fill="#A5ABB6" stroke="none" d="M 25 0.5 L 73.24868938644197 0.5 L 73.24868938644197 -0.5 L 25 -0.5 Z M 92.58462688644197 0.5 L 140.83331627288393 0.5 L 140.83331627288393 3.5 L 147.83331627288393 0 L 140.83331627288393 -3.5 L 140.83331627288393 -0.5 L 92.58462688644197 -0.5 Z"/><text text-anchor="middle" pointer-events="none" font-size="8px" fill="#000000" x="82.91665813644197" y="3" transform="rotate(180 82.91665813644197 0)" font-family="sans-serif">trek</text></g><g class="relationship" transform="translate(24.171991468059122 53.97155877360953) rotate(222.0401577230934)"><path class="outline" fill="#A5ABB6" stroke="none" d="M 25 0.5 L 58.893343864568266 0.5 L 58.893343864568266 -0.5 L 25 -0.5 Z M 78.22928136456827 0.5 L 112.12262522913653 0.5 L 112.12262522913653 3.5 L 119.12262522913653 0 L 112.12262522913653 -3.5 L 112.12262522913653 -0.5 L 78.22928136456827 -0.5 Z"/><text text-anchor="middle" pointer-events="none" font-size="8px" fill="#000000" x="68.56131261456827" y="3" transform="rotate(180 68.56131261456827 0)" font-family="sans-serif">trek</text></g><g class="relationship" transform="translate(24.171991468059122 53.97155877360953) rotate(222.0401577230934)"><path class="outline" fill="#A5ABB6" stroke="none" d="M 21.40063509461097,-12.933012701892217 L 21.90063509461097,-12.06698729810778 A 97.55287924115892 97.55287924115892 0 0 1 57.49476751752324,-24.241829782697778 L 57.35963765462007,-25.232657679030822 A 98.55287924115892 98.55287924115892 0 0 0 21.40063509461097,-12.933012701892217 Z M 79.43118132172991,-25.747026651544445 L 79.34235482904958,-24.75097953709748 A 97.55287924115892 97.55287924115892 0 0 1 115.46499767845441,-14.247469360078837 L 114.08765474470427,-11.582337760542234 L 121.91319523299818,-11.477857781251252 L 117.30145492345461,-17.800978159460975 L 115.92411198970447,-15.135846559924373 A 98.55287924115892 98.55287924115892 0 0 0 79.43118132172991,-25.747026651544445"/><text text-anchor="middle" pointer-events="none" font-size="8px" fill="#000000" x="68.39260973954336" y="-22.609979221529287" transform="rotate(180 68.39260973954336 -25.609979221529287)" font-family="sans-serif">road</text></g></g><g class="layer nodes"><g class="node" aria-label="graph-node1" transform="translate(24.171991468059122,53.97155877360953)"><circle class="outline" cx="0" cy="0" r="25" fill="#57C7E3" stroke="#23b3d7" stroke-width="2px"/><text class="caption" text-anchor="middle" pointer-events="none" x="0" y="5" font-size="10px" fill="#2A2C34" font-family="sans-serif"> Darjeeling</text></g><g class="node" aria-label="graph-node3" transform="translate(-416.0370123121051,-28.947939189905853)"><circle class="outline" cx="0" cy="0" r="25" fill="#D9C8AE" stroke="#c0a378" stroke-width="2px"/><text class="caption" text-anchor="middle" pointer-events="none" x="0" y="5" font-size="10px" fill="#2A2C34" font-family="sans-serif"> Sandakp…</text></g><g class="node" aria-label="graph-node0" transform="translate(-82.86437430491624,-42.540344663489726)"><circle class="outline" cx="0" cy="0" r="25" fill="#57C7E3" stroke="#23b3d7" stroke-width="2px"/><text class="caption" text-anchor="middle" pointer-events="none" x="0" y="5" font-size="10px" fill="#2A2C34" font-family="sans-serif"> Rimbik</text></g><g class="node" aria-label="graph-node2" transform="translate(-243.20388157981836,-29.201188393269277)"><circle class="outline" cx="0" cy="0" r="25" fill="#F16667" stroke="#eb2728" stroke-width="2px"/><text class="caption" text-anchor="middle" pointer-events="none" x="0" y="5" font-size="10px" fill="#FFFFFF" font-family="sans-serif"> BhikeBh…</text></g></g></svg>