<svg xmlns="http://www.w3.org/2000/svg" width="536.5018310546875" height="110.12461853027344" viewBox="-461.0693054199219 -78.07586669921875 536.5018310546875 110.12461853027344"><title>Neo4j Graph Visualization</title><desc>Created using Neo4j (http://www.neo4j.com/)</desc><g class="layer relationships"><g class="relationship" transform="translate(46.43251886621184 3.048748533869559) rotate(193.4860090103615)"><path class="outline" fill="#A5ABB6" stroke="none" d="M 21.40063509461097,12.933012701892217 L 21.90063509461097,12.06698729810778 A 98.56347919988289 98.56347919988289 0 0 0 38.805839333730574,19.80265304489049 L 38.477355237758644,20.74716254653329 A 99.56347919988289 99.56347919988289 0 0 1 21.40063509461097,12.933012701892217 Z M 99.50036707467275,22.159951996435893 L 99.21594559193942,21.20125265870807 A 98.56347919988289 98.56347919988289 0 0 0 116.46103353821232,14.256225902992522 L 115.08287625689812,11.591515316838628 L 122.90838445279044,11.484644010951698 L 118.29857657996459,17.809173351197717 L 116.92041929865039,15.144462765043823 A 99.56347919988289 99.56347919988289 0 0 1 99.50036707467275,22.159951996435893"/><text text-anchor="middle" pointer-events="none" font-size="8px" fill="#000000" x="68.88949630759575" y="28.74545110883301" transform="rotate(180 68.88949630759575 25.74545110883301)" font-family="sans-serif">PublicTransport</text></g><g class="relationship" transform="translate(-94.6805353094761 -30.793056208978708) rotate(181.87675078401804)"><path class="outline" fill="#A5ABB6" stroke="none" d="M 25 0.5 L 68.03325091362825 0.5 L 68.03325091362825 -0.5 L 25 -0.5 Z M 87.36918841362825 0.5 L 130.4024393272565 0.5 L 130.4024393272565 3.5 L 137.4024393272565 0 L 130.4024393272565 -3.5 L 130.4024393272565 -0.5 L 87.36918841362825 -0.5 Z"/><text text-anchor="middle" pointer-events="none" font-size="8px" fill="#000000" x="77.70121966362825" y="3" transform="rotate(180 77.70121966362825 0)" font-family="sans-serif">trek</text></g><g class="relationship" transform="translate(-256.99585989188404 -36.11167493481231) rotate(184.2350225673693)"><path class="outline" fill="#A5ABB6" stroke="none" d="M 25 0.5 L 74.60842259641545 0.5 L 74.60842259641545 -0.5 L 25 -0.5 Z M 93.94436009641545 0.5 L 143.5527826928309 0.5 L 143.5527826928309 3.5 L 150.5527826928309 0 L 143.5527826928309 -3.5 L 143.5527826928309 -0.5 L 93.94436009641545 -0.5 Z"/><text text-anchor="middle" pointer-events="none" font-size="8px" fill="#000000" x="84.27639134641545" y="3" transform="rotate(180 84.27639134641545 0)" font-family="sans-serif">trek</text></g><g class="relationship" transform="translate(46.43251886621184 3.048748533869559) rotate(193.4860090103615)"><path class="outline" fill="#A5ABB6" stroke="none" d="M 25 0.5 L 59.38918425203646 0.5 L 59.38918425203646 -0.5 L 25 -0.5 Z M 78.72512175203646 0.5 L 113.11430600407292 0.5 L 113.11430600407292 3.5 L 120.11430600407292 0 L 113.11430600407292 -3.5 L 113.11430600407292 -0.5 L 78.72512175203646 -0.5 Z"/><text text-anchor="middle" pointer-events="none" font-size="8px" fill="#000000" x="69.05715300203646" y="3" transform="rotate(180 69.05715300203646 0)" font-family="sans-serif">trek</text></g><g class="relationship" transform="translate(46.43251886621184 3.048748533869559) rotate(193.4860090103615)"><path class="outline" fill="#A5ABB6" stroke="none" d="M 21.40063509461097,-12.933012701892217 L 21.90063509461097,-12.06698729810778 A 98.56347919988289 98.56347919988289 0 0 1 57.99026404686512,-24.385158856280697 L 57.85642024635425,-25.37616129677457 A 99.56347919988289 99.56347919988289 0 0 0 21.40063509461097,-12.933012701892217 Z M 79.92784142033028,-25.887153298648983 L 79.84000332150069,-24.89101853447599 A 98.56347919988289 98.56347919988289 0 0 1 116.46103353821232,-14.256225902992522 L 115.08287625689812,-11.591515316838628 L 122.90838445279044,-11.484644010951698 L 118.29857657996459,-17.809173351197717 L 116.92041929865039,-15.144462765043823 A 99.56347919988289 99.56347919988289 0 0 0 79.92784142033028,-25.887153298648983"/><text text-anchor="middle" pointer-events="none" font-size="8px" fill="#000000" x="68.88949630759572" y="-22.74545110883301" transform="rotate(180 68.88949630759572 -25.74545110883301)" font-family="sans-serif">road</text></g></g><g class="layer nodes"><g class="node" aria-label="graph-node1" transform="translate(46.43251886621184,3.048748533869559)"><circle class="outline" cx="0" cy="0" r="25" fill="#57C7E3" stroke="#23b3d7" stroke-width="2px"/><text class="caption" text-anchor="middle" pointer-events="none" x="0" y="5" font-size="10px" fill="#2A2C34" font-family="sans-serif"> Darjeeling</text></g><g class="node" aria-label="graph-node3" transform="translate(-432.0692998185743,-49.07586189088064)"><circle class="outline" cx="0" cy="0" r="25" fill="#D9C8AE" stroke="#c0a378" stroke-width="2px"/><text class="caption" text-anchor="middle" pointer-events="none" x="0" y="5" font-size="10px" fill="#2A2C34" font-family="sans-serif"> Sandakp…</text></g><g class="node" aria-label="graph-node0" transform="translate(-94.6805353094761,-30.793056208978708)"><circle class="outline" cx="0" cy="0" r="25" fill="#57C7E3" stroke="#23b3d7" stroke-width="2px"/><text class="caption" text-anchor="middle" pointer-events="none" x="0" y="5" font-size="10px" fill="#2A2C34" font-family="sans-serif"> Rimbik</text></g><g class="node" aria-label="graph-node2" transform="translate(-256.99585989188404,-36.11167493481231)"><circle class="outline" cx="0" cy="0" r="25" fill="#F16667" stroke="#eb2728" stroke-width="2px"/><text class="caption" text-anchor="middle" pointer-events="none" x="0" y="5" font-size="10px" fill="#FFFFFF" font-family="sans-serif"> BhikeBh…</text></g></g></svg>